<svg width="54" height="60" viewBox="0 0 54 60" fill="none" xmlns="http://www.w3.org/2000/svg">
<path d="M20.8425 18.6035L2.50431 32.4431C1.28842 33.3607 0.486846 34.7237 0.275932 36.2324C0.065019 37.741 0.462042 39.2716 1.37966 40.4875L8.29943 49.6566C9.21705 50.8725 10.5801 51.6741 12.0887 51.885C13.5973 52.0959 15.128 51.6989 16.3439 50.7812L18.6361 49.0513L25.5559 58.2204C26.0147 58.8283 26.6962 59.2291 27.4506 59.3346C28.2049 59.44 28.9702 59.2415 29.5781 58.7827L34.1627 55.3228C34.7706 54.864 35.1714 54.1825 35.2769 53.4282C35.3823 52.6739 35.1838 51.9085 34.725 51.3006L27.8052 42.1315L34.682 36.9417L53.0631 37.461L25.3841 0.784733L20.8425 18.6035ZM49.5388 11.3381C52.497 15.2579 52.9778 20.4717 50.7279 24.8321L36.8884 6.49392C41.693 5.56631 46.5979 7.44129 49.5388 11.3381Z" fill="#274C77"/>
</svg>
